<mxfile host="app.diagrams.net" modified="2021-05-27T07:42:55.796Z" agent="5.0 (Windows NT 10.0; Win64; x64) AppleWebKit/537.36 (KHTML, like Gecko) Chrome/90.0.4430.212 Safari/537.36 Edg/90.0.818.66" etag="_DDfRQ-a_k5j8SYPqI-L" version="14.7.2" type="github">
  <diagram id="mBkaezlXo1s4EpmqKDd2" name="Page-1">
    <mxGraphModel dx="749" dy="1184" grid="1" gridSize="10" guides="1" tooltips="1" connect="1" arrows="1" fold="1" page="1" pageScale="1" pageWidth="827" pageHeight="1169" math="0" shadow="0">
      <root>
        <mxCell id="0" />
        <mxCell id="1" parent="0" />
        <mxCell id="4rOw2pMvuygdOV8j_96a-12" value="" style="html=1;shadow=0;dashed=0;align=center;verticalAlign=middle;shape=mxgraph.arrows2.arrow;dy=0.6;dx=40;direction=south;notch=0;" vertex="1" parent="1">
          <mxGeometry x="295" y="110" width="70" height="490" as="geometry" />
        </mxCell>
        <mxCell id="4rOw2pMvuygdOV8j_96a-7" style="edgeStyle=orthogonalEdgeStyle;rounded=0;orthogonalLoop=1;jettySize=auto;html=1;entryX=0.5;entryY=0;entryDx=0;entryDy=0;entryPerimeter=0;" edge="1" parent="1" source="4rOw2pMvuygdOV8j_96a-2" target="4rOw2pMvuygdOV8j_96a-6">
          <mxGeometry relative="1" as="geometry" />
        </mxCell>
        <mxCell id="4rOw2pMvuygdOV8j_96a-9" style="edgeStyle=orthogonalEdgeStyle;rounded=0;orthogonalLoop=1;jettySize=auto;html=1;exitX=0;exitY=0.5;exitDx=0;exitDy=0;entryX=1;entryY=0.3333333333333333;entryDx=0;entryDy=0;entryPerimeter=0;" edge="1" parent="1" source="4rOw2pMvuygdOV8j_96a-2" target="4rOw2pMvuygdOV8j_96a-5">
          <mxGeometry relative="1" as="geometry" />
        </mxCell>
        <mxCell id="4rOw2pMvuygdOV8j_96a-2" value="1" style="ellipse;whiteSpace=wrap;html=1;" vertex="1" parent="1">
          <mxGeometry x="270" y="160" width="120" height="80" as="geometry" />
        </mxCell>
        <mxCell id="4rOw2pMvuygdOV8j_96a-3" value="2" style="ellipse;whiteSpace=wrap;html=1;" vertex="1" parent="1">
          <mxGeometry x="270" y="280" width="120" height="80" as="geometry" />
        </mxCell>
        <mxCell id="4rOw2pMvuygdOV8j_96a-13" style="edgeStyle=orthogonalEdgeStyle;rounded=0;orthogonalLoop=1;jettySize=auto;html=1;exitX=0;exitY=1;exitDx=0;exitDy=0;entryX=0;entryY=1;entryDx=0;entryDy=0;entryPerimeter=0;" edge="1" parent="1" source="4rOw2pMvuygdOV8j_96a-4" target="4rOw2pMvuygdOV8j_96a-5">
          <mxGeometry relative="1" as="geometry" />
        </mxCell>
        <mxCell id="4rOw2pMvuygdOV8j_96a-4" value="3" style="ellipse;whiteSpace=wrap;html=1;" vertex="1" parent="1">
          <mxGeometry x="270" y="400" width="120" height="80" as="geometry" />
        </mxCell>
        <mxCell id="4rOw2pMvuygdOV8j_96a-16" style="edgeStyle=orthogonalEdgeStyle;rounded=0;orthogonalLoop=1;jettySize=auto;html=1;exitX=1;exitY=1;exitDx=0;exitDy=0;exitPerimeter=0;entryX=0;entryY=0.5;entryDx=0;entryDy=0;" edge="1" parent="1" source="4rOw2pMvuygdOV8j_96a-5" target="4rOw2pMvuygdOV8j_96a-4">
          <mxGeometry relative="1" as="geometry" />
        </mxCell>
        <mxCell id="4rOw2pMvuygdOV8j_96a-5" value="Actor" style="shape=umlActor;verticalLabelPosition=bottom;verticalAlign=top;html=1;" vertex="1" parent="1">
          <mxGeometry x="170" y="220" width="30" height="60" as="geometry" />
        </mxCell>
        <mxCell id="4rOw2pMvuygdOV8j_96a-8" style="edgeStyle=orthogonalEdgeStyle;rounded=0;orthogonalLoop=1;jettySize=auto;html=1;entryX=1;entryY=0.5;entryDx=0;entryDy=0;" edge="1" parent="1" source="4rOw2pMvuygdOV8j_96a-6" target="4rOw2pMvuygdOV8j_96a-3">
          <mxGeometry relative="1" as="geometry" />
        </mxCell>
        <mxCell id="4rOw2pMvuygdOV8j_96a-6" value="Actor" style="shape=umlActor;verticalLabelPosition=bottom;verticalAlign=top;html=1;" vertex="1" parent="1">
          <mxGeometry x="480" y="230" width="30" height="60" as="geometry" />
        </mxCell>
        <mxCell id="4rOw2pMvuygdOV8j_96a-17" value="CAS 回滚" style="whiteSpace=wrap;html=1;" vertex="1" parent="1">
          <mxGeometry x="130" y="490" width="120" height="60" as="geometry" />
        </mxCell>
        <mxCell id="4rOw2pMvuygdOV8j_96a-18" value="Compare" style="text;html=1;align=center;verticalAlign=middle;resizable=0;points=[];autosize=1;strokeColor=none;" vertex="1" parent="1">
          <mxGeometry x="180" y="370" width="60" height="20" as="geometry" />
        </mxCell>
        <mxCell id="4rOw2pMvuygdOV8j_96a-19" value="Compare And Swap" style="text;html=1;align=center;verticalAlign=middle;resizable=0;points=[];autosize=1;strokeColor=none;" vertex="1" parent="1">
          <mxGeometry x="374" y="330" width="120" height="20" as="geometry" />
        </mxCell>
        <mxCell id="4rOw2pMvuygdOV8j_96a-20" value="roll back" style="text;html=1;align=center;verticalAlign=middle;resizable=0;points=[];autosize=1;strokeColor=none;" vertex="1" parent="1">
          <mxGeometry x="110" y="400" width="60" height="20" as="geometry" />
        </mxCell>
      </root>
    </mxGraphModel>
  </diagram>
</mxfile>
